<svg width="30" height="30" viewBox="0 0 30 30" fill="none" xmlns="http://www.w3.org/2000/svg">
<path opacity="0.4" d="M24.9907 23.6917H17.8728C17.1783 23.6917 16.6135 24.2654 16.6135 24.9709C16.6135 25.6777 17.1783 26.2501 17.8728 26.2501H24.9907C25.6851 26.2501 26.2499 25.6777 26.2499 24.9709C26.2499 24.2654 25.6851 23.6917 24.9907 23.6917Z" fill="#3E3D3D"/>
<path d="M12.8863 8.62975L19.6311 14.0799C19.7938 14.2102 19.8216 14.4494 19.6946 14.616L11.6984 25.0352C11.1958 25.6788 10.455 26.043 9.66136 26.0564L5.2962 26.1102C5.06339 26.1128 4.85969 25.9516 4.80677 25.7205L3.81469 21.4071C3.64273 20.6144 3.81469 19.7947 4.31735 19.1631L12.3532 8.69425C12.4828 8.52629 12.7223 8.49673 12.8863 8.62975Z" fill="#3E3D3D"/>
<path opacity="0.4" d="M22.6506 10.8318L21.3503 12.455C21.2194 12.6203 20.9839 12.6472 20.8212 12.5155C19.2405 11.2363 15.1928 7.95356 14.0698 7.04386C13.9058 6.90949 13.8833 6.67031 14.0155 6.50369L15.2695 4.94632C16.4071 3.48167 18.3913 3.3473 19.9918 4.62383L21.8305 6.08848C22.5845 6.67971 23.0871 7.45907 23.2591 8.27874C23.4575 9.18037 23.2459 10.0659 22.6506 10.8318Z" fill="#3E3D3D"/>
</svg>
