<svg width="30" height="30" viewBox="0 0 30 30" fill="none" xmlns="http://www.w3.org/2000/svg">
<path opacity="0.4" d="M20.8333 2.5H9.16667C4.91111 2.5 2.5 4.91111 2.5 9.16667V20.8333C2.5 25.0778 4.9 27.5 9.16667 27.5H20.8333C25.0889 27.5 27.5 25.0778 27.5 20.8333V9.16667C27.5 4.91111 25.0889 2.5 20.8333 2.5Z" fill="#3E3D3D"/>
<path d="M19.1506 15.8854H15.9369V19.0712C15.9369 19.5842 15.5174 20 15 20C14.4826 20 14.0631 19.5842 14.0631 19.0712V15.8854H10.8494C10.3668 15.8359 10 15.4327 10 14.9517C10 14.4706 10.3668 14.0674 10.8494 14.0179H14.053V10.8421C14.103 10.3636 14.5097 10 14.995 10C15.4802 10 15.8869 10.3636 15.9369 10.8421V14.0179H19.1506C19.6332 14.0674 20 14.4706 20 14.9517C20 15.4327 19.6332 15.8359 19.1506 15.8854Z" fill="#3E3D3D"/>
</svg>
