<svg width="20" height="20" viewBox="0 0 20 20" fill="none" xmlns="http://www.w3.org/2000/svg">
<path d="M17.8563 2.14842C17.4396 1.72259 16.8229 1.56509 16.2479 1.73175L2.8396 5.60592C2.23293 5.77425 1.80293 6.25509 1.6871 6.86509C1.56876 7.48675 1.9821 8.27675 2.5221 8.60675L6.7146 11.1668C7.1446 11.4301 7.6996 11.3643 8.05543 11.0076L12.8563 6.20675C13.0979 5.95592 13.4979 5.95592 13.7396 6.20675C13.9813 6.44759 13.9813 6.84009 13.7396 7.09009L8.93043 11.8909C8.57377 12.2476 8.5071 12.8009 8.7696 13.2318L11.3313 17.4401C11.6313 17.9393 12.1479 18.2234 12.7146 18.2234C12.7813 18.2234 12.8563 18.2234 12.9229 18.2143C13.5729 18.1318 14.0896 17.6893 14.2813 17.0643L18.2563 3.75675C18.4313 3.19009 18.2729 2.57342 17.8563 2.14842Z" fill="white"/>
<path opacity="0.4" fill-rule="evenodd" clip-rule="evenodd" d="M2.50882 14.0062C2.34882 14.0062 2.18882 13.9453 2.06716 13.8228C1.82299 13.5787 1.82299 13.1837 2.06716 12.9395L3.20466 11.8012C3.44883 11.5578 3.84466 11.5578 4.08882 11.8012C4.33216 12.0453 4.33216 12.4412 4.08882 12.6853L2.95049 13.8228C2.82882 13.9453 2.66882 14.0062 2.50882 14.0062ZM5.64316 14.9998C5.48316 14.9998 5.32316 14.939 5.20149 14.8165C4.95732 14.5723 4.95732 14.1773 5.20149 13.9332L6.33899 12.7948C6.58316 12.5515 6.97899 12.5515 7.22316 12.7948C7.46649 13.039 7.46649 13.4348 7.22316 13.679L6.08483 14.8165C5.96316 14.939 5.80316 14.9998 5.64316 14.9998ZM5.85457 17.9732C5.97624 18.0957 6.13624 18.1565 6.29624 18.1565C6.45624 18.1565 6.61624 18.0957 6.73791 17.9732L7.87624 16.8357C8.11957 16.5915 8.11957 16.1957 7.87624 15.9515C7.63207 15.7082 7.23624 15.7082 6.99207 15.9515L5.85457 17.0898C5.61041 17.334 5.61041 17.729 5.85457 17.9732Z" fill="white"/>
</svg>
